#!OML:ASF \\sashay\E\Suitcase\Project 1\Capture day 1\Session 1\Male1.ASF
:FULLY-SPECIFIED
:DEGREES
1565
root -1.16427 17.7348 8.49032 10.3647 -6.91672 2.58384
lowerback 30.1365 -2.4967 13.1482
upperback 7.30017 1.83377 11.5991
thorax -7.58608 0.614354 4.77004
lowerneck -10.2861 -11.7935 -7.85074
upperneck 8.71139 -15.7291 9.14362
head 5.6509 -7.38869 2.69284
rclavicle 3.18055e-015 6.36111e-014
rhumerus -6.04937 2.34726 -67.4502
rradius 25.8397
rwrist -7.63371
rhand -12.6616 15.2753
rfingers 7.12502
rthumb 13.4194 -14.2725
lclavicle 3.18055e-015 6.36111e-014
lhumerus -35.7022 -15.2954 102.332
lradius 64.9522
lwrist 2.81127
lhand -1.5439 43.3946
lfingers 7.12502
lthumb 24.1108 71.8996
rfemur -20.0895 -2.82195 17.7477
rtibia 19.1931
rfoot -7.08154 -7.45362
rtoes 9.69448
lfemur -16.1585 -4.90937 -13.7948
ltibia 15.651
lfoot -4.80063 7.67587
ltoes 4.0808
1566
root -1.13912 17.7284 8.51558 10.1188 -6.81693 2.36843
lowerback 29.833 -2.42477 13.0926
upperback 7.12858 1.88208 11.6266
thorax -7.65777 0.636147 4.80659
lowerneck -10.9281 -11.746 -7.3012
upperneck 9.07538 -15.6309 8.28329
head 5.74491 -7.35104 2.32457
rclavicle 1.90833e-014 -5.08889e-014
rhumerus -6.42062 0.743708 -67.5569
rradius 25.1165
rwrist -7.58293
rhand -14.2576 16.8386
rfingers 7.12502
rthumb 11.8807 -12.8043
lclavicle 1.90833e-014 -5.08889e-014
lhumerus -35.7932 -15.155 102.558
lradius 64.5908
lwrist 2.3323
lhand -1.52449 42.9663
lfingers 7.12502
lthumb 24.1294 71.4689
rfemur -19.7285 -2.97943 17.8822
rtibia 19.1536
rfoot -7.24236 -7.33086
rtoes 10.5129
lfemur -15.8042 -5.02436 -13.7025
ltibia 15.7182
lfoot -5.13812 7.89928
ltoes 4.12335
1567
root -1.12678 17.7196 8.53601 10.0231 -6.83728 2.03598
lowerback 29.407 -2.33158 12.9673
upperback 6.96606 1.90127 11.5849
thorax -7.66688 0.647931 4.81055
lowerneck -10.4456 -11.5876 -7.66263
upperneck 8.60008 -15.4341 8.90147
head 5.58227 -7.25459 2.62187
rclavicle 6.36111e-015 -3.49861e-014
rhumerus -6.86339 -0.0518497 -67.8643
rradius 25.0949
rwrist -8.5638
rhand -15.1069 16.2156
rfingers 7.12502
rthumb 11.0616 -13.4729
lclavicle 6.36111e-015 -3.49861e-014
lhumerus -35.9888 -14.9901 102.456
lradius 64.5525
lwrist 2.04812
lhand -1.12792 42.9375
lfingers 7.12502
lthumb 24.5096 71.3891
rfemur -19.4813 -2.72993 18.1495
rtibia 19.1895
rfoot -7.3288 -7.48386
rtoes 10.4083
lfemur -15.5156 -5.06617 -13.4308
ltibia 15.6724
lfoot -5.39009 8.03891
ltoes 3.67759
1568
root -1.10206 17.7067 8.54472 9.68528 -6.58294 1.80065
lowerback 29.2868 -2.33891 12.9215
upperback 6.8292 1.88823 11.6328
thorax -7.77535 0.639414 4.88952
lowerneck -10.7415 -11.5979 -7.91691
upperneck 8.6963 -15.4013 8.89007
head 5.67693 -7.23716 2.63933
rclavicle -3.18055e-014 -5.40694e-014
rhumerus -7.28725 -1.17374 -67.915
rradius 25.0868
rwrist -9.12182
rhand -16.0323 15.8812
rfingers 7.12502
rthumb 10.169 -13.853
lclavicle -3.18055e-014 -5.40694e-014
lhumerus -35.9867 -14.7587 102.631
lradius 64.3859
lwrist 1.87822
lhand -1.33954 43.0898
lfingers 7.12502
lthumb 24.3067 71.5687
rfemur -19.0029 -2.84395 18.3311
rtibia 19.1815
rfoot -7.61311 -7.55869
rtoes 10.5366
lfemur -15.1127 -5.01523 -13.3426
ltibia 15.7061
lfoot -4.28803 8.85401
ltoes 9.76066
1569
root -1.06953 17.7008 8.56047 9.49423 -6.2072 1.74791
lowerback 28.8628 -2.45304 13.0114
upperback 6.60115 1.71393 11.4606
thorax -7.82954 0.557673 4.71004
lowerneck -10.8694 -11.4097 -7.66231
upperneck 8.62348 -15.1445 8.6573
head 5.61504 -7.11841 2.55808
rclavicle -4.77083e-014 -9.54166e-014
rhumerus -7.59488 -2.22868 -68.0974
rradius 24.7313
rwrist -10.2892
rhand -16.7972 15.8404
rfingers 7.12502
rthumb 9.43099 -13.9286
lclavicle -4.77083e-014 -9.54166e-014
lhumerus -35.9981 -15.432 102.639
lradius 63.8156
lwrist 2.37635
lhand -1.21277 43.3204
lfingers 7.12502
lthumb 24.4283 71.7829
rfemur -18.6931 -3.24474 18.2778
rtibia 19.2631
rfoot -7.70421 -7.51309
rtoes 9.7633
lfemur -14.892 -5.14882 -13.4918
ltibia 15.7245
lfoot -4.64276 8.90217
ltoes 11.0371
1570
root -1.03408 17.688 8.57642 9.24747 -6.10074 1.46024
lowerback 28.5913 -2.4941 12.9949
upperback 6.45759 1.63297 11.5003
thorax -7.87618 0.518694 4.78469
lowerneck -10.733 -11.3151 -8.03895
upperneck 8.37106 -14.9628 8.74134
head 5.53393 -7.04802 2.67104
rclavicle 6.36111e-014 1.01778e-013
rhumerus -7.98135 -3.01969 -68.1297
rradius 24.7078
rwrist -11.2226
rhand -17.4835 15.8645
rfingers 7.12502
rthumb 8.76876 -13.9334
lclavicle 6.36111e-014 1.01778e-013
lhumerus -36.2514 -14.9948 102.739
lradius 63.8939
lwrist 1.94611
lhand -1.27131 43.199
lfingers 7.12502
lthumb 24.3721 71.6691
rfemur -18.4191 -3.43188 18.4654
rtibia 19.3936
rfoot -7.82967 -7.35568
rtoes 10.155
lfemur -14.4578 -5.2432 -13.3813
ltibia 15.6273
lfoot -6.40489 8.38001
ltoes 4.5567
1571
root -1.0187 17.6804 8.60046 9.02235 -6.0056 1.33523
lowerback 28.2852 -2.39212 12.7812
upperback 6.24089 1.67271 11.4186
thorax -7.99533 0.537898 4.78773
lowerneck -11.0698 -11.2517 -7.65427
upperneck 8.50762 -14.8644 8.24203
head 5.55396 -7.0078 2.45637
rclavicle -3.49861e-014 -4.13472e-014
rhumerus -8.4295 -4.28147 -68.1786
rradius 24.5109
rwrist -12.1731
rhand -18.2009 15.4458
rfingers 7.12502
rthumb 8.07645 -14.3798
lclavicle -3.49861e-014 -4.13472e-014
lhumerus -36.4645 -14.6836 102.735
lradius 63.7644
lwrist 1.63567
lhand -1.11033 43.0551
lfingers 7.12502
lthumb 24.5265 71.5044
rfemur -18.1298 -3.35278 18.4978
rtibia 19.616
rfoot -8.14724 -7.44439
rtoes 10.8852
lfemur -14.0046 -5.17128 -13.4021
ltibia 15.4823
lfoot -6.83963 8.45488
ltoes 5.02531
